<svg xmlns="http://www.w3.org/2000/svg" viewBox="0 0 234.16 65.46">
  <g id="About">
    <path d="M6,60.66c2.1-9.07,3.69-18.29,5.4-27.44C13,24.3,15.07,15.52,16.21,6.53L8.58,8.6C18.5,25.9,26,44.08,33.85,62.38c2,4.76,10.18,1.35,8.42-3.56-6.8-19-16.59-36.95-26.62-54.35C14,1.59,8.84,1.89,8.17,5.44c-1.7,8.91-2.49,17.87-3.89,26.83S1.26,50.08,0,59C-.48,62.81,5,64.61,6,60.66Z"/>
    <path d="M10.61,42.81c1.32.4,2.7.18,4,.48a6.88,6.88,0,0,0,1.56.34,18.29,18.29,0,0,0,2.08-.2,3.89,3.89,0,0,0,0-7.77,16.24,16.24,0,0,0-2.08-.19,10.3,10.3,0,0,0-1.56.33c-1.31.3-2.69.09-4,.49a3.41,3.41,0,0,0,0,6.52Z"/>
    <path d="M49.93,15.59l-.55.08,3.35,1.9-.27,1-2.45,1c-1.32,0,.92,7.29,1.2,8.4l2.67,10.56c1.69,6.7,3.11,13.55,5.26,20.11,1.74,5.33,9.46,3.16,8.36-2.3-1.55-7.74-4-15.36-6.08-23-1-3.82-2-7.65-3.13-11.46-.73-2.55-1.36-5.58-3.2-7.63-2.56-2.86-7.65-2.75-8.59,1.49-.65,2.92,1.7,6.18,4.84,4.93a2.66,2.66,0,0,0-1.41-5.12Z"/>
    <path d="M65.05,39.25c5.18-6.06,15.7-5.44,16.55,3.74.75,8-8.86,11.45-14.17,6-4.27-4.4-10.91,2.28-6.72,6.71C71.93,67.54,92.55,58.89,91,42.36A16.27,16.27,0,0,0,78.14,27.67c-6.85-1.33-14.54,1.59-18,7.82-1.63,3,2.51,6.55,4.88,3.76Z"/>
    <path d="M120.82,53.53c-4-4.34-9.48-9.87-8.37-16.37,1.38-8.15,10.64-5,14.79-.89,3.58,3.53,6,10.16,1.45,13.92-3.21,2.61-7.8,2.84-10.48-.45C115,45.75,108.1,51,111,55.28c5.45,7.94,16.22,8,23.37,2.16,8.67-7.08,6.82-19.53-.35-27s-21.61-11.25-27.85-.77c-6.54,11,2,21.42,9.93,28.53,3.17,2.86,7.61-1.54,4.69-4.69Z"/>
    <path d="M154.88,29.66c-2.41,7.79-3.6,16.93,0,24.56,2.89,6.08,9.05,11.14,16,11.24s12.4-4.61,14.94-10.7c3.37-8.08,1-17-2.57-24.6-2.11-4.55-9.76-1.34-8.14,3.43s4,10.11,3,15.4c-.8,4.14-4.08,8.32-8.74,7.06-10.49-2.86-8-17.58-7.58-25.45.21-4.09-5.79-4.65-6.94-.94Z"/>
    <path d="M204.66,4.29c2.09,14.32,4.62,28.58,7.27,42.82.83,4.47.7,12.54,5.6,14.74a5.39,5.39,0,0,0,7.66-5.23,4.29,4.29,0,0,0-2.13-3.71l-.49-.26c-5-2.64-8.57,4.11-4.3,7.35l.45.34-2-4.86,1.85-1.79,4.35,1.15c-1-.87-1.16-5-1.43-6.3q-.58-2.9-1.19-5.78c-.94-4.5-1.86-9-2.85-13.48-2-9-4-17.91-6.22-26.81-1.09-4.38-7.2-2.41-6.59,1.82Z"/>
    <path d="M199.13,36.17c10.38-1.89,20.1-1.31,30.53-.82,6.19.29,5.8-8.62,0-9.38-10.57-1.38-22.23.51-32.5,3.08-4.66,1.17-2.64,8,2,7.12Z"/>
  </g>
</svg>
