<svg xmlns="http://www.w3.org/2000/svg" viewBox="0 0 273.94 64.63">
  <g id="Archive">
    <path d="M6.18,60.13c4.07-18,8.4-36.11,14.74-53.55L11.28,7.84a164,164,0,0,1,22.8,53c1.55,6.61,11.72,3.81,10.17-2.8A172.81,172.81,0,0,0,20.39,2.51a5.35,5.35,0,0,0-9.64,1.26C4.34,21.71.13,40.19,0,59.3c0,3.48,5.38,4.35,6.18.83Z"/>
    <path d="M5.82,45.71c4.81-.32,9.62-.72,14.43-.93,4.64-.21,9.34.31,13.72-1.46,3.66-1.48,4.94-7.89,0-8.78s-9.16.33-14,1.15c-5,.87-10.15,1.47-15.23,2.19-4.42.63-3.4,8.12,1.06,7.83Z"/>
    <path d="M62.55,58.22c-2-6.9-6.64-17.23-1.95-24,2.1-3,8.44-6,10.88-1.92,3.46,5.75,12.48.51,9-5.26-5.43-9-17.79-8.09-24.94-1.58-10.32,9.39-5.32,25.09.54,35.52,2,3.48,7.57,1.14,6.47-2.73Z"/>
    <path d="M116.44,29.7c-11.13-10.52-31.36-.62-30.15,14.63C87.44,58.67,109,66.87,118.52,55.26c3.9-4.73-2.1-10.95-6.79-6.79s-14.67,2.37-15.59-4.65c-1-7.62,10.18-11.48,15.64-8.08,3.69,2.31,7.85-3,4.66-6Z"/>
    <path d="M126.61,5.27c1.83,16.19,3.72,32.7,7.23,48.62,1.1,5,9.69,4,9.06-1.23-2-16.22-5.56-32.43-9.2-48.35-.89-3.88-7.56-3.14-7.09,1Z"/>
    <path d="M141.11,37.68c1.94-8.34,11.32-6.75,15.44-1.15,4.94,6.72,3.4,15.19,3.75,22.93.24,5.13,8.56,6.92,9.48,1.28,2-12.39.58-29-11.82-35.71-9.32-5-23.6-.19-23.6,11.74,0,3.8,5.85,4.76,6.75.91Z"/>
    <path d="M180.75,30c.71,8.78,1.58,17.8,3.76,26.35,1.25,4.87,9.6,4,9-1.22-1-8.85-3.23-17.55-5.68-26.09-1.09-3.78-7.44-3.24-7.1,1Z"/>
    <path d="M181.22,11.59a5.82,5.82,0,0,0,4-1.65,5.73,5.73,0,0,0,1.65-4,5.75,5.75,0,0,0-1.65-4,5.63,5.63,0,0,0-8,0,5.73,5.73,0,0,0-1.65,4,5.67,5.67,0,0,0,1.65,4,5.84,5.84,0,0,0,4,1.65Z"/>
    <path d="M198.74,29.46c5,8.51,9.71,17.19,15.07,25.46,2,3.08,7.72,3.07,8.5-1.11,2.22-12,6.21-23.9,9.38-35.7,1.55-5.74-7.4-8.2-8.88-2.46-3.07,11.84-5.47,24.14-9.47,35.69l8.5-1.11c-5.47-8.26-11.56-16.1-17.4-24.1-2.45-3.36-7.89-.42-5.7,3.33Z"/>
    <path d="M244.29,39.61c5.21-.08,10.45-.35,15.65-.68,2.94-.18,6.15-.31,8.85-1.64,6-3,6.58-9.92,2.69-14.89-7.81-10-23.16-7.11-31.35.69-8.68,8.28-9.11,21.81-.07,30,8.6,7.8,21.6,9.06,30.77,1.68,4.26-3.42-1.77-9.35-6-6-10.62,8.47-29.3-5.25-20.68-17.48,3.58-5.08,10.89-8.57,17-6.44,1.36.47,4.87,2.22,4.72,4-.18,2.17-4.59,2.14-6,2.33-5.49.75-11,1.45-16.46,2.41-3.44.6-2.59,6.08.81,6Z"/>
  </g>
</svg>
