<svg xmlns="http://www.w3.org/2000/svg" viewBox="0 0 184.71 92.49">
  <g id="Blog">
    <path d="M1,9.85C.51,18,.44,26.26.3,34.45.16,42.12-.56,50.47.9,58c.66,3.39,6.2,3.4,6.86,0,1.46-7.55.74-15.9.6-23.57C8.22,26.26,8.15,18,7.67,9.85A3.34,3.34,0,0,0,1,9.85Z"/>
    <path d="M5.69,10.05C9.63,7.51,15.88,8.44,18.14,13c2.14,4.29-1.11,10.5-5.93,11.13l1.16,8.54c6.2-1.19,13.29-1.34,18.77,2.32,5.07,3.4,8.07,9.67,5,15.41-2.76,5.13-8.66,7.8-14.33,7.39C16,57.28,11.22,53.24,6,49.36c-4-3-7.59,3.1-4.93,6.38,11.36,14,37.82,15,44.79-3.91,3-8.13-.29-17-6.77-22.39-7.92-6.61-18.36-7.07-28.07-5.18-4.75.92-3.73,9.19,1.15,8.54,10.13-1.35,18.29-11.77,14-22-3.78-9-16-11.9-23.7-6.2C-.66,7,2.22,12.3,5.69,10.05Z"/>
    <path d="M62.15,2.26C61,9,61.21,16.11,61.25,22.94s.08,13.68.69,20.45c.76,8.43,6.71,21.41,17.54,17.3,3.69-1.39,3.61-7.92-1-7.48-10.43,1-9.22-14.45-9.55-21.34-.46-9.52.34-19.32-.63-28.78C68-.11,62.82-1.5,62.15,2.26Z"/>
    <path d="M113.22,53c-11.79-2.91-14.61-23.11.25-22.57,5.62.2,11.69,4,11.66,10.15,0,7.33-8,13.4-15,11.71-5.4-1.3-7.7,7-2.3,8.32,11.78,2.85,24.29-5.91,25.52-18.1,1.09-10.81-8-19-18.2-20S95.77,28.34,95.2,38.81c-.54,9.91,6.7,20.36,17.19,20.39,3.5,0,4.32-5.32.83-6.18Z"/>
    <path d="M162.3,46c-8,1.94-14.11-8.83-5.16-12.28,8.73-3.37,12.94,8.38,7.63,14.14S151.34,55.15,148,62.75c-2.57,5.92-1.95,13.86,4.52,16.87,2.39,1.12,5.38.3,6.14-2.49,2.1-7.85,13.13-11.34,17.11-2.88,3.23,6.88-4.47,12.37-10.52,8.92-3.74-2.14-8.43,3.36-4.78,6.19,11.86,9.22,28.7-3.56,23.06-17.55-2.68-6.65-9.38-11.27-16.63-10.62-7.89.71-13.84,6.43-16.3,13.72l6.14-2.5c-5.87-3.2,3.62-10.5,6.07-12.11,4.47-2.92,9-5.94,11.33-10.95,4.13-9-.19-21.42-10.2-24.08-9.25-2.46-20.25,4.66-20.06,14.64.17,9.58,12.37,17.94,20.75,11.64,2.67-2,1.23-6.47-2.36-5.6Z"/>
    <path d="M174.1,30.07c0-1.29,1-1.57,2-1.17l-2.54-2.55a8.39,8.39,0,0,0,1,2.12c.28.39.76.78,1,1.18l-.19-.27c.1.53.14.65.11.36s0-.16,0,.38a4.65,4.65,0,1,0,9.3,0c.18-4.61-3.74-9.6-8.66-8.25H178c-5.12-1.25-10.57,2.69-10.1,8.2.34,3.93,6.09,4,6.21,0Z"/>
  </g>
</svg>
