<svg xmlns="http://www.w3.org/2000/svg" viewBox="0 0 947.1 300.03">
  <g>
    <g id="_-_" data-name="~-~">
      <path d="M113.67,259.49c47.52,4.8,95.78,4.52,143.5,5.48s95.7,1.55,143.55,1.78q142.56.66,285.09-3.2,80.72-2.16,161.4-5.7c8.31-.37,8.35-13.35,0-13q-143.41,6.45-287,8.49-142.55,2-285.11-.28-39.87-.63-79.73-1.62c-27.22-.67-54.49-1.77-81.71-.89-5.83.19-5.62,8.34,0,8.91Z"/>
      <path d="M890.93,205.5a572.24,572.24,0,0,1-44.52,41c-5.43,4.43,2.47,12.57,7.79,7.79a346.62,346.62,0,0,0,41.65-43.92c2.68-3.42-1.68-8.19-4.92-4.91Z"/>
      <path d="M890.45,294c-3.19-3.91-7-7.32-10.23-11.15-3.48-4.06-6.64-8.44-10-12.59-3.26-4-6.46-8-9.56-12.16s-5.56-8.74-9.72-11.72c-3.88-2.78-9.27,1.82-7.95,6.11,1.48,4.79,5.46,8.76,8.6,12.61q5.33,6.54,11.11,12.68c3.69,3.91,7.76,7.29,11.73,10.89s7.74,7.37,12.12,10.42c3.24,2.27,6.07-2.45,3.93-5.09Z"/>
      <path d="M877.14,255.07c3.16,7.06,9.12,13.45,13.79,19.57s9.51,12.5,14.67,18.35c3.76,4.28,11.5-1.51,8-6.18-4.87-6.51-10.22-12.74-15.54-18.89C893,262,888,255.14,881.65,250.56c-3-2.17-5.7,1.87-4.51,4.51Z"/>
      <path d="M882.59,257.81c9.93-7.44,20.68-16.58,27-27.42,2.56-4.39-3.88-9.8-7.27-5.61-3.86,4.76-7,10-11.06,14.63a134.56,134.56,0,0,1-12.92,12.91c-2.94,2.58,1,7.89,4.24,5.49Z"/>
      <path d="M905.36,225.18c5.54,6.52,11.48,12.7,17.08,19.19,5.23,6,10.78,13.25,17.47,17.72,3.91,2.61,9.07-2.59,6.49-6.5-4.45-6.73-11.6-12.26-17.63-17.55-6.45-5.64-12.6-11.6-19.1-17.17a3,3,0,0,0-4.31,4.31Z"/>
      <path d="M915.83,286.12c8.78-6.63,17.34-13.6,25.85-20.57,4.7-3.85-2.06-10.69-6.71-6.71-8.07,6.9-16.16,13.83-24,21.05-3.22,3,1.16,9,4.81,6.23Z"/>
      <path d="M70.64,218.54c11.07,12.88,23.21,24.91,34.53,37.58,4.45,5,11.94-2.46,7.35-7.34-11.74-12.49-24.23-25-38.18-35-3-2.14-5.81,2.32-3.7,4.79Z"/>
      <path d="M72.83,299.08c6.88-5.83,13.49-12,20.19-18s14-11.65,19.71-18.51c3.14-3.81-1.11-11-5.78-7.49-7.21,5.44-13.32,12.51-19.66,18.91-6.56,6.63-13.23,13.18-19.57,20-3.2,3.45,1.59,8.09,5.11,5.11Z"/>
      <path d="M16.25,251.58c9.49,12.43,20.44,23.63,33.81,32,5.11,3.19,9.19-4.46,4.61-7.9C43,267,31.49,258.05,21.06,247.86c-2.39-2.33-7,.86-4.81,3.72Z"/>
      <path d="M56.25,280.3c5-2.52,9.42-7,13.62-10.69,4.62-4.08,9.41-8,13.82-12.3s-2.3-11.12-6.88-6.87-8.64,8.76-12.94,13.16c-3.9,4-8.52,8.15-11.28,13a2.7,2.7,0,0,0,3.66,3.66Z"/>
      <path d="M44.74,223.5c2.17,2.46,3.83,5.4,6,7.88q3.59,4.05,7.33,8c4.67,4.91,9.45,10.24,14.76,14.46,4.83,3.84,10.76-2,6.79-6.8-4.3-5.24-9.71-9.94-14.69-14.53-2.41-2.22-4.88-4.4-7.35-6.56-2.76-2.42-6-4.22-8.73-6.57a2.93,2.93,0,0,0-4.15,4.14Z"/>
      <path d="M22,252.39c8.77-7.84,19.55-15.06,26.54-24.59,2.73-3.71-2.61-8.83-6.3-6.3-9.73,6.65-17.3,17.24-25.4,25.72-3.27,3.43,1.67,8.29,5.16,5.17Z"/>
    </g>
    <g id="DEAR_ROBOTS" data-name="DEAR ROBOTS">
      <path d="M141.16,94.34c-1.38,10-1,20.35-1,30.41s.3,20.27.72,30.39,1,20.25,1.75,30.35c.72,9.84.48,20.93,3.24,30.44,1.39,4.78,8.07,3.59,8.41-1.14.67-9.52-1.53-19.77-2.27-29.3q-1.19-15.15-1.88-30.35c-.45-9.8-.66-19.6-.92-29.41-.26-10.06.34-20.38-.67-30.4-.38-3.81-6.74-5.53-7.36-1Z"/>
      <path d="M124.64,101c7.7.41,15.39-2.06,23.21-1.68,7.07.35,14.34,2.17,19.49,7.31,10.15,10.13,9.08,27.32,8.89,40.48l-.42,28.76c-.13,8.89.41,18.09-.56,26.92-.44,4-1.66,7.38-5.59,9.12-3.45,1.53-7.77,1.83-11.46,1.91-9,.2-17-2.36-24.92-6.4-5.92-3-10.88,5.36-5.22,8.94,12.52,7.93,31.05,10.7,45.05,5.23,15.81-6.17,12.73-26.1,12.92-39.76.24-17.23,1.67-34.9.16-52.09-1.16-13.14-5.2-26.44-16.71-34.11-6.58-4.39-14.62-5.84-22.4-5.5s-17.12,1.36-24,5c-2.88,1.53-1.36,5.66,1.58,5.82Z"/>
      <path d="M200.91,103.43c.47,19.16,1.57,38.29,2.77,57.41s1.47,38.46,3.8,57.42c.75,6.1,9.87,6.52,9.84,0-.07-19.09-2.25-38.36-3.47-57.42s-2.56-38.31-4.5-57.41c-.54-5.28-8.58-5.53-8.44,0Z"/>
      <path d="M206.31,105.66c5.17-.75,10.11-1.68,15.37-1.45,4.75.2,9.35,1.3,14.08.58,3.85-.59,4.38-6.62,1.08-8.29-5-2.5-10.67-2.25-16.09-1.7S209.43,96,204.21,98.05c-4.8,1.84-2.91,8.33,2.1,7.61Z"/>
      <path d="M211.44,155.91c3.37,1.68,6.38,1.26,10,1.87,3.3.56,6.3,2,9.63,2.36,5.45.55,5.92-6.65,2.49-9.21-3.08-2.31-7.68-2.7-11.42-2.87-4.31-.2-8.12.13-11.31,3.15a3,3,0,0,0,.6,4.7Z"/>
      <path d="M212.72,224.08c10.35,2.33,21.84,2.63,32.4,1.86a5.06,5.06,0,0,0,0-10.12c-10.56-.86-22-.65-32.4,1.59-3.31.72-3.28,5.93,0,6.67Z"/>
      <path d="M274.67,97.5q-6,30-9.91,60.39c-1.3,10.09-2.55,20.18-3.67,30.28-.57,5.21-1.1,10.43-1.62,15.65s-1.52,10.51-1.13,15.66,8,6.76,9.43,1.28c2.63-9.67,2.51-20.67,3.61-30.63s2.22-20.2,3.44-30.28q3.71-30.67,7.14-61.36c.47-4.14-6.47-5.08-7.29-1Z"/>
      <path d="M273.83,99.24c6.25,20,12.83,39.92,19.22,59.87q4.72,14.77,9.07,29.65c2.95,10.13,5,20.93,8.83,30.74,2.31,5.93,10.39,3.64,9.45-2.61-1.56-10.38-5.44-20.8-8.43-30.84q-4.56-15.33-9.54-30.52a572.65,572.65,0,0,0-22.74-58.75c-1.51-3.32-6.93-1-5.86,2.46Z"/>
      <path d="M267.5,171.2c11.85-3,23-1.16,34.42,2.69,5.22,1.77,8.86-6.59,3.79-9-12.6-6-27.22-5.59-40.1-.56-4.17,1.63-2.65,8,1.89,6.86Z"/>
      <path d="M323.82,97.07c.73,20.22,3.3,40.62,5.3,60.75,1,9.81,2,19.6,3.09,29.4,1.08,10.15,1.49,20.68,3.83,30.63,1.21,5.14,9,3.89,9.06-1.23.18-10.4-1.74-21-2.85-31.36-1.06-9.8-2.11-19.6-3.24-29.4C336.73,136,334.9,115.74,331.37,96c-.76-4.28-7.71-3.27-7.55,1Z"/>
      <path d="M328.48,103.68c10-9.27,26.32-3,28.54,10.13a21,21,0,0,1-5.78,18.12c-5.13,5.25-11.22,6.83-18.06,8.57-5.44,1.38-4.28,9.76,1.32,9.74,20.75-.05,37.77-21.81,31.55-41.76-2.76-8.85-9.79-16.09-19.08-17.81-8.72-1.61-18.15,2.26-22.9,9.6-1.79,2.77,2.14,5.52,4.41,3.41Z"/>
      <path d="M334,151.25c14.2-4.39,28.15,6.29,34.26,18.7,7.94,16.12,5.75,35.14,10.95,52,2,6.34,11.16,3.71,9.87-2.72-3.92-19.54-3.12-43.26-15.19-60.06-9.18-12.79-27.15-23.34-42.25-13.54-2.81,1.82-1.09,6.67,2.36,5.6Z"/>
      <path d="M443,95.3c-.11,19.51,2.11,39.21,3.43,58.67s2.7,39.15,3.95,58.72c.37,5.65,9.13,5.73,8.86,0L459,208c-.26-5.62-9-5.68-8.79,0l.15,4.65h8.86c-1-19.92-2.07-39.82-3.5-59.72-1.4-19.47-2.26-39.38-5.57-58.64-.71-4.14-7.15-3-7.17,1Z"/>
      <path d="M447.55,102.81c9.21-4.59,22.92,2,24.73,12.35,2,11.51-10.9,20.58-21.37,17.94-5.74-1.44-7.89,6.83-2.42,8.78,16.79,6,36.21-10.45,33.22-28-2.83-16.67-23.31-25.24-37.51-16.77-3.7,2.2-.45,7.63,3.35,5.73Z"/>
      <path d="M461.26,142c7.38-2.7,15,1.9,19.45,7.79,5,6.59,6.13,15.38,6.8,23.37,1.22,14.75,1.54,31.46,13.21,42.3,4.42,4.11,10.77-2.22,6.63-6.63-13.31-14.14-7.8-35.65-13.24-52.81-4.74-14.95-19.44-27-35.35-19.94-3.33,1.48-1,7.18,2.5,5.92Z"/>
      <path d="M538.41,209.81c-15.55-6.26-16.06-24.26-16.59-38.55q-1-26.31.29-52.64c.19-4.09-.09-8.64.68-12.65.69-3.66,4.05-2.86,6.91-1.36,6.9,3.64,8.79,12.18,10.09,19.2,3.16,17.16,5.9,34.52,7.73,51.88,1,9.49,2,19.21,1.81,28.76-.23,10.43-9.82,7.28-16.55,4.61-4.65-1.83-7.93,5.92-3.42,8.11,7,3.42,16,6.54,23.19,1.61,8.09-5.57,6.42-17,6-25.41-1.29-23.63-5.15-47.13-9.21-70.42-1.61-9.25-4.22-18.71-12-24.71-5.9-4.56-16.62-7.13-21.86-.11-2.48,3.32-2.32,7.78-2.56,11.73-.38,6.16-.62,12.33-.78,18.51q-.47,18,.11,36.06c.56,17.6.62,50.52,25.35,51.52,3.79.15,3.88-4.91.83-6.14Z"/>
      <path d="M571.73,101.89c-1.51,3.72-.32,7.64.38,11.46.82,4.47,1.67,8.93,2.4,13.41,1.49,9.17,2.78,18.38,3.75,27.62q1.43,13.53,2,27.14c.38,9-.16,18.23.61,27.21.52,6.1,8.67,6,9.38,0,1.12-9.48.3-19.64-.18-29.15q-.7-13.61-2.23-27.14c-1-8.8-2.21-17.58-3.81-26.29-.82-4.46-1.69-8.91-2.66-13.34s-1.51-9.1-4.93-12.16a2.86,2.86,0,0,0-4.7,1.24Z"/>
      <path d="M578,104.64c8.67-6.72,21.43-4,25,7a12.83,12.83,0,0,1-3,12.47c-3.63,4.09-8,5-13.16,5.18s-6.56,8-1.25,9.21c16.34,3.76,31.67-14.56,26.24-30C606,91.84,585.63,88,573.28,99.92c-3.19,3.07,1.43,7.28,4.72,4.72Z"/>
      <path d="M587.93,143.33c7.12-2.33,14.5,1.23,19.11,6.81,5.11,6.17,6.18,14.52,5.91,22.26-.43,12.06-4.69,37.67-22.4,33-6.08-1.59-8.27,7.15-2.56,9.26,9.7,3.6,20.13-1.59,26-9.52,6.69-9.12,8.53-21.73,8.85-32.78.31-10.63-2-22.38-9.93-30.06-7.08-6.89-17.52-10.14-26.91-6.21-4.28,1.79-2.71,8.73,2,7.2Z"/>
      <path d="M655.77,205.34c-6.42-2.7-7-14.66-7.95-20.45a186.08,186.08,0,0,1-2.46-26.24,183.65,183.65,0,0,1,1.15-25.58c.84-7.26,1.36-16.23,5.17-22.69,4.42-7.49,10.64-2.87,13.89,3,3.92,7.06,6.16,15.35,8,23.16a210.73,210.73,0,0,1,5.84,48.23c0,7.25-1.23,16.2-7.71,20.64-4.38,3-12.09,4.47-15.5-.68s-11.82-.32-8.36,4.89c9.33,14.06,30.26,8.17,37.1-5.22,4.64-9.1,4.45-19.6,3.61-29.52a321.74,321.74,0,0,0-4.19-33c-2-10.65-4.9-21.5-9.84-31.2C670.82,103.44,664,96,655.06,97.45c-8.26,1.39-12.49,9.49-14.42,16.89-2.84,10.88-3.74,22.67-4,33.87a183.77,183.77,0,0,0,3.18,38.89c1.69,9,3.72,22,14.24,24.53,4.21,1,5.49-4.7,1.73-6.29Z"/>
      <path d="M693.31,104c7.77-.65,15.76-.79,23.57-.79s15.83,1.27,23.65.94c4.64-.2,6.07-7.35,1.14-8.44-7.91-1.76-16.76-1.18-24.79-.72a160.38,160.38,0,0,0-24.31,3.52c-3,.64-2.42,5.75.74,5.49Z"/>
      <path d="M710.94,103.6c-.84,8.51-.31,17.32-.27,25.87,0,9,.31,17.92.57,26.88.26,8.62.49,17.25.77,25.87s0,17.55,1.56,26c.91,5,7.55,3.08,8.06-1.09,1-8.42.15-17.41-.08-25.88q-.37-13.44-.8-26.87c-.5-17-.21-34.84-2.87-51.7-.67-4.23-6.59-2.71-6.94.94Z"/>
      <path d="M780.49,101c-7.66-7.39-20.77-7.27-27.49,1.44-7,9.09-4.57,22.18,4.58,28.72,4.91,3.51,10.87,4.91,16.1,7.83a27.25,27.25,0,0,1,11.67,13.78c4.63,11.32,4.3,26.21-2.55,36.58-3.91,5.91-10.86,10.41-18.16,9.73-7-.66-12.95-7.23-11.68-14.41,1.07-6.08-7.92-8.8-9.42-2.59-3,12.58,6.61,25,19.13,26.67,13.48,1.84,25.86-7.25,31.21-19.19a52.34,52.34,0,0,0,1.34-38A40.54,40.54,0,0,0,785.61,136c-4.68-4.56-10.35-6.85-16.26-9.35-6.54-2.76-13.1-7.34-10.52-15.45,2.4-7.55,11.73-9.22,17.92-5.35,3,1.86,6.26-2.41,3.74-4.85Z"/>
    </g>
    <g id="_-_2" data-name="~-~">
      <path d="M107,49.29c47,3.51,94.48,3.76,141.63,4.7s94.43,1.64,141.65,2.11q140.67,1.42,281.34,0c53.14-.5,106.51-.15,159.61-2.55,7.3-.33,7.38-11.38,0-11.4-47.2-.16-94.46,1.64-141.65,2.19s-94.45.86-141.67,1q-140.67.27-281.33-2.14c-26.6-.45-53.2-1.07-79.8-1.48s-53.2-1.38-79.78-.93c-5.54.1-5.42,8.11,0,8.52Z"/>
      <path d="M63.85,16.8c5,6.17,11.26,11.64,17.26,16.78a133.61,133.61,0,0,0,19,14c5.95,3.49,10.68-5.18,5.3-9.07-6.27-4.53-12.79-8.69-19-13.28s-11.88-9.73-18-14.33c-3.66-2.74-6.94,2.85-4.52,5.86Z"/>
      <path d="M66.52,85.36c6.83-5.12,13.28-10.67,20-15.93,6.44-5.05,13.37-10.33,19-16.25,3.79-4-1.27-11.36-6.11-7.92C92.73,50,86.51,56,80.52,61.65c-6.24,5.87-12.66,11.53-18.73,17.57-3,3,1.09,8.87,4.73,6.14Z"/>
      <path d="M33.25,16.47c1,1.31,1.48,2.83,2.41,4.15a33.93,33.93,0,0,0,4,4.23C42.38,27.6,45.2,30.27,48,33,53.58,38.29,59,44,64.92,49c4.48,3.71,10.51-2.05,6.46-6.46C66.16,36.8,60.16,31.71,54.54,26.42c-2.82-2.67-5.64-5.34-8.52-7.94-1.1-1-2.19-2-3.34-2.93-1.77-1.44-3.52-1.85-5.39-3.11-2.36-1.59-5.82,1.66-4,4Z"/>
      <path d="M66.25,49.32C61.73,53.57,57.56,58.06,52.72,62S42.37,69.22,37.24,73s-.78,11.74,5.08,8.7c11.46-5.93,23-16.89,30-27.64,2.47-3.78-3-7.61-6.08-4.69Z"/>
      <path d="M5.75,51.2c3.57,0,3.57-5.55,0-5.55s-3.58,5.55,0,5.55Z"/>
      <path d="M3.57,50.59C9,55.4,14.38,60.19,19.68,65.12c5.05,4.7,9.61,10.38,15.09,14.51C39.26,83,44.55,75.76,40.68,72c-4.84-4.76-11.25-8.39-16.59-12.65s-10.71-8.78-16-13.22C5,43.5.47,47.85,3.57,50.59Z"/>
      <path d="M6,46.35A142.39,142.39,0,0,1,20,31c5.18-4.75,11.32-7.9,16.71-12.28,3.29-2.66-.25-8.51-4.14-7.11-6.73,2.4-13,7.83-18.2,12.63A66.73,66.73,0,0,0,.4,42c-1.79,3.4,2.92,7.62,5.61,4.33Z"/>
      <path d="M838.12,49.84c11.63-12.57,21-27.43,29.86-42.05,3.48-5.78-5.61-11.08-9-5.28C850.38,17,840.7,30.82,832.35,45.39c-2,3.54,2.87,7.57,5.77,4.45Z"/>
      <path d="M837.71,52.87q-3,1-.64,1.81a31.83,31.83,0,0,0,2.8,2.77c1.9,1.81,3.84,3.59,5.79,5.34,3.43,3.08,7,6,10.51,9C863.58,78,871,84.25,878.62,90.14c4.65,3.58,10.73-4.3,6.29-8.16-10.24-8.88-21-17.43-31.82-25.6-3.25-2.46-19.73-16.11-20.56-4.21-.21,3,4.36,3.47,5.18.7Z"/>
      <path d="M870.06,49.8c9.75,11.33,21.29,21.13,33,30.42,4.77,3.79,11.6-2.83,6.8-6.8-11.81-9.73-23.22-20-35.34-29.35-3.46-2.68-7,2.8-4.42,5.73Z"/>
      <path d="M871.6,47c4.21-6.37,8.69-12.55,13.2-18.7s9.69-12,13.43-18.45c2.34-4-3.08-8.21-6.44-5-5.36,5.17-9.71,12.18-13.71,18.43-4.27,6.68-8,13.62-11.67,20.65a3,3,0,0,0,5.19,3Z"/>
      <path d="M897.11,9.44c4.27,7,10.77,12.63,16.54,18.31s11.76,12.7,18.64,16.83c3.86,2.32,9.27-2.5,6.47-6.46-4.68-6.61-12-12.07-18.09-17.4S908.36,9.18,901.12,5.44c-2.5-1.3-5.62,1.39-4,4Z"/>
      <path d="M910,77.3c4.06-5.64,8.36-11.14,12.9-16.41,4.19-4.87,9.21-9.26,13-14.41,2.46-3.35-2.33-7.81-5.64-5.64C924.7,44.47,920,50.37,916,55.6a102.74,102.74,0,0,0-11.3,18.62A3,3,0,0,0,910,77.3Z"/>
    </g>
  </g>
</svg>
