<svg xmlns="http://www.w3.org/2000/svg" viewBox="0 0 88.33 100.28">
  <g id="_random" data-name="~random">
    <path d="M3.52,23.36C-.17,29.74.6,38.19.32,45.31a185.11,185.11,0,0,0,.14,24,6.1,6.1,0,0,0,12.19,0,183.35,183.35,0,0,0,.14-24c-.28-7.13.5-15.57-3.2-22a3.55,3.55,0,0,0-6.07,0Z"/>
    <path d="M8.46,31.3c8.41-4.84,16.7-9.81,25-14.8,3-1.77,6.48-4.85,10.11-3.65,3.95,1.29,7.63,5.43,10.77,8q5.79,4.71,11.58,9.41c1.07.87,3.07,2.14,3.84,3.33,1,1.51,1,3.9,1.35,5.6C73,49.37,74.72,59.6,76.84,69.74c1.32,6.31,12.31,5,11.44-1.55-1.6-12-2.9-24.53-5.67-36.33C81.33,26.45,77.67,23.4,73.53,20L59.06,8.26C50.51,1.32,42.23-3.22,31.65,2.8A148.53,148.53,0,0,0,3.16,24.43c-3.63,3.45,1,9.34,5.3,6.87Z"/>
    <path d="M2.88,71.94C5.69,79.72,14.37,85.28,21.12,89.4q6,3.66,12.33,6.82c4,2,8.74,5.34,13.26,3.44,2.28-1,4.53-3.34,3.47-6.1-1.62-4.22-4.19-5.12-8.09-6.9s-8-3.81-11.81-6c-3.6-2-7.13-4.09-10.7-6.12S12.19,71,9.15,68.29C6.59,66,1.53,68.18,2.88,71.94Z"/>
    <path d="M46.07,97.58c3.57,0,3.57-5.55,0-5.55s-3.58,5.55,0,5.55Z"/>
    <path d="M42.58,100.05c17.7,2.49,28.73-15.84,41.78-24.25,6.71-4.32.55-15-6.29-10.76C71.38,69.21,65.85,74.69,60,79.88c-5.71,5.05-11.76,7.84-18.61,10.89-3.8,1.69-3,8.69,1.21,9.28Z"/>
    <path d="M24.51,39.27a88.68,88.68,0,0,0,16.31,9.85c4.45,2.14,7.33-4.63,2.63-6.24a88.67,88.67,0,0,0-18.59-4.45.5.5,0,0,0-.35.84Z"/>
    <path d="M58,39.54a19.88,19.88,0,0,0-7.45,1.64,55.46,55.46,0,0,0-7.86,3.72c-4.6,3,.61,9.76,4.59,6,.91-.87,1.51-2,2.36-2.87a35.1,35.1,0,0,1,3.11-2.73,39.79,39.79,0,0,0,5.37-5.41.18.18,0,0,0-.12-.3Z"/>
    <path d="M44.19,68.83c.74-2,.68-3.81,1.2-5.86.38-1.51,1-2.81,1.25-4.37a67.58,67.58,0,0,0,1.13-10.1c0-3.32-4.94-4-5.8-.78a29.19,29.19,0,0,0-.76,11.69A33.93,33.93,0,0,0,44,68.86a.11.11,0,0,0,.21,0Z"/>
    <path d="M59.83,65.46A5,5,0,0,0,63.27,64a4.86,4.86,0,0,0-3.44-8.3,5,5,0,0,0-3.44,1.42,4.87,4.87,0,0,0,3.44,8.31Z"/>
    <path d="M24.12,50.7l-.1-.07.82.63a1.29,1.29,0,0,1-.16-.18l.63.82a.94.94,0,0,1-.12-.22l.42,1a7.24,7.24,0,0,0-.26-.73,5.56,5.56,0,0,0-.92-1.4A3.82,3.82,0,0,0,21,49.42a4,4,0,0,0-3,1.93,4.66,4.66,0,0,0,2,6.34,4.29,4.29,0,0,0,3.12.4,4,4,0,0,0,2.82-5l-.41-1a4.11,4.11,0,0,0-1.45-1.45Z"/>
    <path d="M30.47,70.82A2.94,2.94,0,0,0,31.9,68.7a6.86,6.86,0,0,0,0-1.11l-.11.81,0-.16-3,2.31a3.39,3.39,0,0,1,.78,0l-.84-.11a2.11,2.11,0,0,1,.36.09l-.76-.32a.7.7,0,0,1,.21.11l-.64-.5a1.29,1.29,0,0,1,.17.16l-.5-.65a.76.76,0,0,1,.12.19l-.33-.77,0,.1L27.3,68v.1l.12-.86a1.38,1.38,0,0,1-.08.29l.33-.78a.77.77,0,0,1-.1.18l.5-.65a.87.87,0,0,1-.13.15l.65-.5a.46.46,0,0,1-.15.09l.76-.32-.08,0a3.21,3.21,0,0,0-2.28,3.5A3,3,0,0,0,27.72,71,3,3,0,0,0,30,72a4.23,4.23,0,0,0,1.86-.52,4.11,4.11,0,0,0,1.37-1.35,3.76,3.76,0,0,0,.08-3.83C32.12,64.34,30,64,28,64.37a3.17,3.17,0,0,0-1.38,5.26l-.19-.27.15.24a4,4,0,0,0,.84,1,2.8,2.8,0,0,0,3.07.27Z"/>
    <path d="M27.94,31.43c.17.15,0,0-.37-.49a2.74,2.74,0,0,0,1,1,2.68,2.68,0,0,0,1.38.38q1.59.06-2.27-1.79l.71-2.69A1.55,1.55,0,0,1,29,27.4c.27-.1.31-.12.13-.08l.74-.1h-.21l.74.1c-.6-.09.11-.24.77.52l.32.43c.2.56.26.71.19.43l.11.78a.61.61,0,0,1,0-.19l-.1.79a.61.61,0,0,1,.05-.18l-.31.71a2.65,2.65,0,0,1-.86.87l-.72.3.15,0-.8.11a1,1,0,0,1,.24,0l-.81-.11.24.08-.73-.31c.32.17-.59-.56-.38-.29V26.87a2.82,2.82,0,0,0-.62.79,3.47,3.47,0,0,0,0,3.38,3.3,3.3,0,0,0,2.46,1.61,3.35,3.35,0,0,0,3.68-4.19l0-.06a3.41,3.41,0,0,0-4.1-2.33h0l2.37.31A3.85,3.85,0,0,0,28.33,26,3.47,3.47,0,0,0,26,30.08a3.86,3.86,0,0,0,6.31,1.65A2.74,2.74,0,0,0,33,29a3.06,3.06,0,0,0-3.79-2.13,2.84,2.84,0,0,0-2,2.65,2.55,2.55,0,0,0,.74,1.87Z"/>
    <path d="M43.47,32.22a4.18,4.18,0,0,0-.45-1.9c.08.21,0-.18-.08-.24s0-.12,0,.16a1.32,1.32,0,0,1,0-.28c0-.19,0-.13,0,.19l-.4.67c-.72.89-1.51.56-2.15.19l-.16-.21c.16.27.16.25,0-.08s.16-1-.06-.51l.82-1.39.39-.26,1.63-.44h-.13a1.8,1.8,0,0,1,1.15.41c.65.41.72.44.21.07s-.44-.35.17.12l.81,1.4,0-.1v1.65l0-.11a3.12,3.12,0,0,0-1.09-3.21,3.16,3.16,0,0,0-3.38-.23c-1.71.74-2.19,3.19-1.31,4.7a4,4,0,0,0,4.32,1.74A3.87,3.87,0,0,0,46.22,30a5.15,5.15,0,0,0-1.81-2.76,4.27,4.27,0,0,0-3.78-1.11,3.56,3.56,0,0,0-2.48,2.44c-.67,2.21,1,4,2.67,5.17a1.78,1.78,0,0,0,2.65-1.53Z"/>
    <path d="M55.11,32.52a2,2,0,0,0,.11-.76c0-.2,0-.21,0,0a1.55,1.55,0,0,1,0-.21c0-.19.05-.39.08-.58-.05.25,0,.28,0,.06-.21.63,0,0,.06-.12L53.12,32.2c-.51-.1-.63-.11-.36,0a1.64,1.64,0,0,1-.84-.49l.28.24c.14.15.12.12-.07-.11s-.21-.27-.09-.09c-.44-.76-.17-.48-.11-.13l-.11-.82a2.29,2.29,0,0,1,0,.37l.11-.83-.06.24.31-.75a1.45,1.45,0,0,1-.18.32l2.74-1.58a.93.93,0,0,1-.29,0l.86.11a.9.9,0,0,1-.28-.08l.78.33c-.39-.18-.79-.32-1.18-.48l.76.33-.12-.07A3.18,3.18,0,0,0,50.92,33a4,4,0,0,0,2.38,1.83,4.24,4.24,0,0,0,2.29-.08A3.79,3.79,0,0,0,57.87,30c-.71-2.54-3.7-4.18-6.08-2.72a2.66,2.66,0,0,0-.94,3.6,7.66,7.66,0,0,0,1.33,1.51c.15.13.32.25.48.37.39.28-.28-.22.2.14a2.12,2.12,0,0,0,1.16.44,1.14,1.14,0,0,0,1.09-.83Z"/>
  </g>
</svg>
