<svg xmlns="http://www.w3.org/2000/svg" viewBox="0 0 66.79 70.36">
  <g id="_first" data-name="~first">
    <path d="M57.73,4.07C52,6.52,47.84,13.23,43.84,17.78,39.25,23,34.67,28.23,30.27,33.62a5.69,5.69,0,0,0,0,7.76A141.7,141.7,0,0,0,58.73,67.76c5.85,4.12,11.42-5.5,5.6-9.58A131.8,131.8,0,0,1,38,33.62v7.76c4.38-5.57,8.61-11.25,12.79-17,3.73-5.1,9.7-10.94,10.9-17.28a2.76,2.76,0,0,0-4-3.06Z"/>
    <path d="M27.57,1C21.5,6.56,16.35,13.44,11.22,19.87c-2.53,3.18-5.05,6.38-7.6,9.55C1.78,31.71,0,33.92,0,37.06c.06,6.54,7.23,13,11.4,17.4a139.41,139.41,0,0,0,16.67,14.8c5.68,4.37,11.31-5.34,5.63-9.65A123,123,0,0,1,20.42,47.9C18,45.46,10,38.82,11.36,35.43c1-2.36,3.5-4.63,5.06-6.68,1.95-2.55,3.92-5.09,5.84-7.67C26,16,30.07,10.8,33.09,5.24A3.53,3.53,0,0,0,27.57,1Z"/>
  </g>
</svg>
