<svg xmlns="http://www.w3.org/2000/svg" viewBox="0 0 72.26 69.28">
	<g id="_latest" data-name="~latest">
	  <path d="M1,8.3c5.52,5.76,11.2,11.23,17.23,16.46q4.13,3.58,8.33,7.12c.76.64,1.52,1.28,2.29,1.91.2-2.92-.09-3.6-.86-2.06-1.12.73-2.06,3.08-2.87,4.2-3.77,5.12-8.44,9.31-12.69,14C8.75,54,4.17,59.19,5.79,65c.66,2.4,4,4.18,6.2,2.53,2.81-2.09,3.89-4.88,5.9-7.62,2.16-2.93,5-5.39,7.5-8C30,47.26,36.45,41,38.7,34.66c2.69-7.59-6.52-12.18-11.4-16.16-7-5.72-14.25-11-21.8-16C1.9.09-1.84,5.33,1,8.3Z"/>
	  <path d="M37.5,5.34c4.56,3.34,8.32,8,12.18,12.08,2.13,2.25,4.25,4.49,6.44,6.68l3.28,3.28,2,2c1,1.26,1.11.76.35-1.48.22.14-20.31,31-22.24,33.86-3.75,5.53,5.19,10.68,8.94,5.22q7.65-11.13,15.09-22.41C66.66,39.75,74.3,32,71.75,25.81c-1.32-3.22-4.49-5.42-7-7.75-2.92-2.77-5.9-5.48-8.9-8.17-5.21-4.67-9.79-9-17-9.86-3.13-.4-3.41,3.86-1.44,5.31Z"/>
	</g>
</svg>
