<svg xmlns="http://www.w3.org/2000/svg" viewBox="0 0 238.82 76.94">
  <g id="_next" data-name="~next">
    <path d="M3.52,50.19c3,.36,5.8,1.7,8.85,2.07,2.8.34,5.63.46,8.45.59,6.21.29,12.43.37,18.65.52,12.17.3,24.35.47,36.52.69,24.26.45,48.81,2,73.06,1.14,8.34-.28,8.24-12.35,0-12.89-24.22-1.57-48.79-.8-73.06-1.09-11.84-.14-23.69-.33-35.54-.42-6.22,0-12.45-.14-18.67-.07-2.88,0-5.79,0-8.65.27-3.31.3-6.36,1.58-9.61,1.88-4.75.44-4.64,6.74,0,7.31Z"/>
    <path d="M168.78,12.64c-5.13,3.17-9,8.65-12.79,13.28s-8.42,10-10.86,15.67c-2.31,5.35,4.1,11.86,8.77,6.77,4.22-4.58,7.43-10.48,10.81-15.71,3.29-5.07,7.51-10.07,9.55-15.8,1.11-3.09-2.82-5.85-5.48-4.21Z"/>
    <path d="M146,50.76c4.08,4.32,10,7,15.05,10,5.39,3.17,10.72,6.48,15.93,10,4.94,3.29,10.91-2.14,9.61-7.39L186,60.73c-1.68-6.78-13.33-5.57-12.51,1.69l.3,2.61,9.84-5.65a179.88,179.88,0,0,0-17-9.81c-5.43-2.72-11.4-5.75-17.56-6-3.78-.16-5.39,4.66-3,7.2Z"/>
    <path d="M171.15,13.81c-.35,3.14,1.64,4.49,3.86,6.36,2.79,2.35,5.63,4.65,8.46,7,5.6,4.55,11.24,9.2,17.09,13.43,5.28,3.83,11.63-4.61,6.93-9A125.31,125.31,0,0,0,186.27,16c-2.43-1.45-14.26-9.77-15.12-2.2Z"/>
    <path d="M203,35.64c-8.69,5.79-16.55,14.58-23.18,22.59-4.64,5.61,2.7,13.35,8.12,8.12,7.46-7.2,15.81-15.77,20.91-24.86,2-3.56-2.16-8.31-5.85-5.85Z"/>
    <path d="M193.6,8.68c2.93,1.52,5.51,4.62,8,6.75l9.72,8.19c5.92,5,12.89,9.7,18.1,15.41l-1.6-3.86c.69-1.26.4-1.11-.86.48-.62.63-1.22,1.28-1.82,1.92-1.2,1.3-2.37,2.61-3.53,4-2.4,2.79-4.71,5.66-7,8.58a124.07,124.07,0,0,0-12.45,19.22c-2.92,5.84,5.32,10.76,8.81,5.14,5.06-8.15,10-16.17,16.35-23.46,4-4.62,14.34-11.43,10.61-18.58-2-3.86-7.41-6.88-10.7-9.6l-10.55-8.74c-4-3.33-8-6.72-12.09-9.95-3.23-2.53-5.7-4.78-10-4-3.9.75-4.55,6.72-1.11,8.51Z"/>
  </g>
</svg>
