<svg xmlns="http://www.w3.org/2000/svg" viewBox="0 0 236.61 68.08">
  <g id="_prev" data-name="~prev">
    <path d="M233.91,38.91c-12.52-.64-25-2.36-37.53-2.83-12.84-.48-25.67-.87-38.51-1.46C132.54,33.46,107.23,32,82,30c-7.54-.59-7.52,11.19,0,11.76,25.27,1.93,50.59,3.43,75.92,4.21,12.5.39,25,.72,37.52.73,12.92,0,25.65-1.52,38.52-2.2a2.79,2.79,0,0,0,0-5.58Z"/>
    <path d="M27.64,34c1.31,5.89,8.65,10.32,13,14.08C46,52.64,51.19,57.54,57,61.51c5,3.42,10.73-4.21,6.41-8.31-5.07-4.83-11-8.9-16.58-13.13-4.62-3.51-10.36-9.62-16.44-9.67A2.86,2.86,0,0,0,27.64,34Z"/>
    <path d="M60.44,62.15A65.65,65.65,0,0,0,87.22,39.2c4-6-5.45-11.25-9.54-5.58A109,109,0,0,1,55.9,56.26c-3.6,2.81,1,7.51,4.54,5.89Z"/>
    <path d="M54.17,8.89A93.82,93.82,0,0,1,78.05,35c3.81,6,13.23.61,9.61-5.62A63.3,63.3,0,0,0,56.72,2.86c-3.75-1.51-5.29,4-2.55,6Z"/>
    <path d="M34.72,34.85c4.35-3.75,8.67-7.51,13-11.27C51.85,20,56.37,16.26,59.41,11.7c2.78-4.18-2.82-9.95-7-7-4.51,3.14-8.16,7.69-11.66,11.9q-5.52,6.63-11,13.25a3.56,3.56,0,0,0,5,5Z"/>
    <path d="M30.89.55c-6.66,5-12.39,11.47-18,17.64C10,21.42,7.1,24.71,4.32,28.08c-2.25,2.74-4.48,5.23-4.31,9C.3,43.5,7.94,50,12.31,54A92.72,92.72,0,0,0,31.05,67.42c5.75,3.13,10.91-5.75,5.13-8.77A82.55,82.55,0,0,1,21.07,48.7a86.59,86.59,0,0,1-6.47-6.09c-1.15-1.2-5.31-4.59-5-6.42.28-2,4.71-5.79,6-7.4,2.4-2.88,4.8-5.76,7.26-8.6,4.27-4.92,8.85-9.74,12.64-15,1.89-2.66-1.94-6.61-4.6-4.6Z"/>
  </g>
</svg>
