<svg xmlns="http://www.w3.org/2000/svg" viewBox="0 0 209.01 64.87">
  <g id="Store">
    <path d="M32.49,9.23C26.2,1.43,13.06.05,5.46,6.72c-6.9,6.05-7.27,17.71-1,24.42,3.67,4,8.56,5,13.8,4.65S29,34.44,30.57,40.71C33.73,53.47,16.65,54,10.69,46.06c-3.6-4.8-11.8-.05-8.13,4.76C9,59.29,21,64.14,31,58.76c8.46-4.53,11.16-15.57,6.94-24A14.83,14.83,0,0,0,28.61,27c-5.5-1.48-14.39,2.7-18.33-2.39C7.54,21.06,8,15.28,11.6,12.52c5.25-4.06,12.24-1.72,17,1.68,3.16,2.24,5.91-2.39,3.84-5Z"/>
    <path d="M55,4.36C57.31,21,62.54,37.49,66.39,53.82c1.34,5.69,10.3,3.27,8.78-2.42-4.34-16.19-7.55-33.19-13.4-48.91C60.17-1.84,54.38-.08,55,4.36Z"/>
    <path d="M49.42,36.1c9.75-.34,19.43-1.6,29.19-1.1,6.79.34,5.85-11.21-1.28-9.48-9.45,2.3-19.17,2.86-28.76,4.33-3.56.54-2.69,6.38.85,6.25Z"/>
    <path d="M111.89,53.48c-3.45-3.84-7.62-7.72-9.07-12.85-1-3.46-.45-9.47,3.67-10.78,4.83-1.54,9.38,4.45,11.46,7.94,1.3,2.18,3,5.26,2.67,7.91-.16,1.29-1.81,4.34-3.41,2.79-4.42-4.28-10.95,2.27-6.74,6.74,6.7,7.11,18,1.34,19.42-7.39,1.56-9.86-6.64-21.69-15.37-25.71s-18,1.06-20.24,10.19c-2.63,10.62,5.2,19.72,13,25.83,3.27,2.58,7.57-1.43,4.66-4.67Z"/>
    <path d="M150.6,52.73c-2.87-5.45-8.6-15.22-4.57-21.37C148,28.44,153.81,26,155.71,30c2.55,5.39,10.61.68,8-4.7-4.3-8.92-16.47-7.86-22.85-1.9-10,9.4-3.26,23.87,2.76,33.4,2.77,4.39,9.36.53,6.95-4.06Z"/>
    <path d="M186.44,45.8c5,0,10-.42,15.07-.35a4.44,4.44,0,0,0,4.21-3.2c2.48-8.57-3.78-16.79-11.8-19.4-8.67-2.82-17.21,1.89-20.65,10.08-8.25,19.66,14,36.83,32.41,30.67,5.83-2,3.36-9.87-2.48-9s-11,1.23-16.15-1.93A13,13,0,0,1,180.61,40c.47-4.24,3.26-9,8-9.07s9.61,4.19,8.67,9.05l3-3c-4.89,1.07-9.86,1.62-14.77,2.63-3.59.74-2.69,6.28.86,6.29Z"/>
  </g>
</svg>
